ffmpeg version 6.1.1-essentials_build-www.gyan.dev Copyright (c) 2000-2023 the FFmpeg developers
  built with gcc 12.2.0 (Rev10, Built by MSYS2 project)
  configuration: --enable-gpl --enable-version3 --enable-static --pkg-config=pkgconf --disable-w32threads --disable-autodetect --enable-fontconfig --enable-iconv --enable-gnutls --enable-libxml2 --enable-gmp --enable-bzlib --enable-lzma --enable-zlib --enable-libsrt --enable-libssh --enable-libzmq --enable-avisynth --enable-sdl2 --enable-libwebp --enable-libx264 --enable-libx265 --enable-libxvid --enable-libaom --enable-libopenjpeg --enable-libvpx --enable-mediafoundation --enable-libass --enable-libfreetype --enable-libfribidi --enable-libharfbuzz --enable-libvidstab --enable-libvmaf --enable-libzimg --enable-amf --enable-cuda-llvm --enable-cuvid --enable-ffnvcodec --enable-nvdec --enable-nvenc --enable-dxva2 --enable-d3d11va --enable-libvpl --enable-libgme --enable-libopenmpt --enable-libopencore-amrwb --enable-libmp3lame --enable-libtheora --enable-libvo-amrwbenc --enable-libgsm --enable-libopencore-amrnb --enable-libopus --enable-libspeex --enable-libvorbis --enable-librubberband
  libavutil      58. 29.100 / 58. 29.100
  libavcodec     60. 31.102 / 60. 31.102
  libavformat    60. 16.100 / 60. 16.100
  libavdevice    60.  3.100 / 60.  3.100
  libavfilter     9. 12.100 /  9. 12.100
  libswscale      7.  5.100 /  7.  5.100
  libswresample   4. 12.100 /  4. 12.100
  libpostproc    57.  3.100 / 57.  3.100
Input #0, lavfi, from 'color=size=2560x1440:duration=22:rate=30:color=black':
  Duration: N/A, start: 0.000000, bitrate: N/A
  Stream #0:0: Video: wrapped_avframe, yuv420p, 2560x1440 [SAR 1:1 DAR 16:9], 30 fps, 30 tbr, 30 tbn
[mov,mp4,m4a,3gp,3g2,mj2 @ 000001586f8d7240] Unknown cover type: 0x1.
Input #1, mov,mp4,m4a,3gp,3g2,mj2, from 'C:\Users\engsa\Desktop\CREATOCLONE\uploads\video-1766934122063-0.bin':
  Metadata:
    major_brand     : qt  
    minor_version   : 0
    compatible_brands: qt  
    creation_time   : 2025-10-15T08:38:31.000000Z
  Duration: 00:00:24.64, start: 0.000000, bitrate: 16561 kb/s
  Stream #1:0[0x1](und): Video: h264 (High) (avc1 / 0x31637661), yuv420p(tv, bt709, progressive), 1972x1080, 16365 kb/s, 50 fps, 50 tbr, 600 tbn (default)
    Metadata:
      creation_time   : 2025-10-15T08:38:31.000000Z
      handler_name    : Core Media Video
      vendor_id       : [0][0][0][0]
      encoder         : H.264
  Stream #1:1[0x2](und): Audio: aac (LC) (mp4a / 0x6134706D), 44100 Hz, stereo, fltp, 188 kb/s (default)
    Metadata:
      creation_time   : 2025-10-15T08:38:31.000000Z
      handler_name    : Core Media Audio
      vendor_id       : [0][0][0][0]
Input #2, jpeg_pipe, from 'C:\Users\engsa\Desktop\CREATOCLONE\uploads\image-1766934122506-1.bin':
  Duration: N/A, bitrate: N/A
  Stream #2:0: Video: mjpeg (Baseline), yuvj444p(pc, bt470bg/unknown/unknown), 1280x707 [SAR 72:72 DAR 1280:707], 25 fps, 25 tbr, 25 tbn
Input #3, jpeg_pipe, from 'C:\Users\engsa\Desktop\CREATOCLONE\uploads\image-1766934122515-2.bin':
  Duration: N/A, bitrate: N/A
  Stream #3:0: Video: mjpeg (Progressive), yuvj420p(pc, bt470bg/unknown/unknown), 400x400 [SAR 1:1 DAR 1:1], 25 fps, 25 tbr, 25 tbn
[mp3 @ 000001586f99c2c0] Estimating duration from bitrate, this may be inaccurate
Input #4, mp3, from 'C:\Users\engsa\Desktop\CREATOCLONE\uploads\audio-1766934122520-0.mp3':
  Metadata:
    encoder         : Lavf60.16.100
  Duration: 00:00:03.16, start: 0.000000, bitrate: 128 kb/s
  Stream #4:0: Audio: mp3, 44100 Hz, mono, fltp, 128 kb/s
Stream mapping:
  Stream #0:0 (wrapped_avframe) -> overlay
  Stream #1:0 (h264) -> scale:default
  Stream #1:1 (aac) -> adelay:default
  Stream #2:0 (mjpeg) -> scale:default
  Stream #3:0 (mjpeg) -> scale:default
  Stream #4:0 (mp3float) -> adelay:default
  overlay:default -> Stream #0:0 (libx264)
  amix:default -> Stream #0:1 (aac)
Press [q] to stop, [?] for help
[swscaler @ 00000158798b1040] deprecated pixel format used, make sure you did set range correctly
[swscaler @ 000001587aae0040] deprecated pixel format used, make sure you did set range correctly
[swscaler @ 0000015879f5e540] deprecated pixel format used, make sure you did set range correctly
    Last message repeated 2 times
[swscaler @ 000001587ad308c0] deprecated pixel format used, make sure you did set range correctly
[swscaler @ 000001587ac3ef40] deprecated pixel format used, make sure you did set range correctly
    Last message repeated 1 times
[libx264 @ 0000015870d0ac80] using SAR=1/1
[libx264 @ 0000015870d0ac80] using cpu capabilities: MMX2 SSE2Fast SSSE3 SSE4.2 AVX FMA3 BMI2 AVX2
[libx264 @ 0000015870d0ac80] profile High, level 5.0, 4:2:0, 8-bit
[libx264 @ 0000015870d0ac80] 264 - core 164 r3172 c1c9931 - H.264/MPEG-4 AVC codec - Copyleft 2003-2023 - http://www.videolan.org/x264.html - options: cabac=1 ref=3 deblock=1:0:0 analyse=0x3:0x113 me=hex subme=7 psy=1 psy_rd=1.00:0.00 mixed_ref=1 me_range=16 chroma_me=1 trellis=1 8x8dct=1 cqm=0 deadzone=21,11 fast_pskip=1 chroma_qp_offset=-2 threads=36 lookahead_threads=6 sliced_threads=0 nr=0 decimate=1 interlaced=0 bluray_compat=0 constrained_intra=0 bframes=3 b_pyramid=2 b_adapt=1 b_bias=0 direct=1 weightb=1 open_gop=0 weightp=2 keyint=250 keyint_min=25 scenecut=40 intra_refresh=0 rc_lookahead=40 rc=crf mbtree=1 crf=23.0 qcomp=0.60 qpmin=0 qpmax=69 qpstep=4 ip_ratio=1.40 aq=1:1.00
Output #0, mp4, to 'C:\Users\engsa\Desktop\CREATOCLONE\uploads\render-1766934122063.mp4':
  Metadata:
    encoder         : Lavf60.16.100
  Stream #0:0: Video: h264 (avc1 / 0x31637661), yuv420p(progressive), 2560x1440 [SAR 1:1 DAR 16:9], q=2-31, 30 fps, 15360 tbn
    Metadata:
      encoder         : Lavc60.31.102 libx264
    Side data:
      cpb: bitrate max/min/avg: 0/0/0 buffer size: 0 vbv_delay: N/A
  Stream #0:1: Audio: aac (LC) (mp4a / 0x6134706D), 44100 Hz, mono, fltp, 192 kb/s
    Metadata:
      encoder         : Lavc60.31.102 aac
frame=    0 fps=0.0 q=0.0 size=       0kB time=N/A bitrate=N/A speed=N/A    frame=    0 fps=0.0 q=0.0 size=       0kB time=00:00:00.55 bitrate=   0.7kbits/s speed=1.03x    frame=    0 fps=0.0 q=0.0 size=       0kB time=00:00:01.48 bitrate=   0.3kbits/s speed=1.42x    frame=    0 fps=0.0 q=0.0 size=       0kB time=00:00:02.25 bitrate=   0.2kbits/s speed=1.45x    frame=   14 fps=6.8 q=29.0 size=    1280kB time=00:00:03.08 bitrate=3395.5kbits/s speed=1.51x    frame=   39 fps= 15 q=29.0 size=    3072kB time=00:00:03.94 bitrate=6375.4kbits/s speed=1.55x    frame=   78 fps= 25 q=29.0 size=    5376kB time=00:00:05.17 bitrate=8505.2kbits/s speed=1.69x    frame=  119 fps= 33 q=29.0 size=    9216kB time=00:00:06.57 bitrate=11489.1kbits/s speed=1.84x    frame=  158 fps= 38 q=29.0 size=   13056kB time=00:00:07.87 bitrate=13587.5kbits/s speed=1.91x    frame=  225 fps= 49 q=29.0 size=   18176kB time=00:00:10.12 bitrate=14707.6kbits/s speed=2.19x    frame=  243 fps= 47 q=29.0 size=   18688kB time=00:00:10.68 bitrate=14332.9kbits/s speed=2.08x    [out#0/mp4 @ 0000015870d29c00] video:18570kB audio:220kB subtitle:0kB other streams:0kB global headers:0kB muxing overhead: 0.070753%
frame=  361 fps= 66 q=-1.0 Lsize=   18804kB time=00:00:11.93 bitrate=12908.5kbits/s speed=2.18x    
[libx264 @ 0000015870d0ac80] frame I:3     Avg QP:19.06  size:191089
[libx264 @ 0000015870d0ac80] frame P:95    Avg QP:20.61  size: 72211
[libx264 @ 0000015870d0ac80] frame B:263   Avg QP:22.25  size: 44037
[libx264 @ 0000015870d0ac80] consecutive B-frames:  1.7%  2.2%  4.2% 92.0%
[libx264 @ 0000015870d0ac80] mb I  I16..4: 15.3% 61.2% 23.5%
[libx264 @ 0000015870d0ac80] mb P  I16..4:  3.6% 16.7%  8.5%  P16..4:  6.9%  4.1%  1.5%  0.0%  0.0%    skip:58.6%
[libx264 @ 0000015870d0ac80] mb B  I16..4:  1.2%  1.9%  2.0%  B16..8: 13.7%  7.2%  2.0%  direct: 3.2%  skip:68.6%  L0:42.7% L1:43.0% BI:14.3%
[libx264 @ 0000015870d0ac80] 8x8 transform intra:51.7% inter:46.7%
[libx264 @ 0000015870d0ac80] coded y,uvDC,uvAC intra: 47.1% 35.6% 13.6% inter: 10.8% 6.3% 0.2%
[libx264 @ 0000015870d0ac80] i16 v,h,dc,p: 57% 30%  5%  8%
[libx264 @ 0000015870d0ac80] i8 v,h,dc,ddl,ddr,vr,hd,vl,hu: 34% 18% 24%  3%  4%  4%  5%  3%  4%
[libx264 @ 0000015870d0ac80] i4 v,h,dc,ddl,ddr,vr,hd,vl,hu: 34% 26% 14%  3%  5%  4%  5%  3%  4%
[libx264 @ 0000015870d0ac80] i8c dc,h,v,p: 65% 17% 15%  3%
[libx264 @ 0000015870d0ac80] Weighted P-Frames: Y:5.3% UV:3.2%
[libx264 @ 0000015870d0ac80] ref P L0: 55.4% 16.0% 19.5%  8.7%  0.3%
[libx264 @ 0000015870d0ac80] ref B L0: 89.4%  8.4%  2.1%
[libx264 @ 0000015870d0ac80] ref B L1: 96.2%  3.8%
[libx264 @ 0000015870d0ac80] kb/s:12641.63
[aac @ 0000015870d09480] Qavg: 58039.352
